<svg width="88" height="88" viewBox="0 0 88 88" fill="none" xmlns="http://www.w3.org/2000/svg">
<path fill-rule="evenodd" clip-rule="evenodd" d="M62.8843 24.4235C56.7203 18.4497 46.8805 18.6039 40.9067 24.7679C34.9329 30.932 35.0871 40.7717 41.2511 46.7455C47.4151 52.7194 57.2549 52.5652 63.2287 46.4011C69.2025 40.2371 69.0483 30.3974 62.8843 24.4235ZM38.1165 22.0638C45.5838 14.3587 57.8834 14.166 65.5884 21.6333C73.2935 29.1006 73.4862 41.4002 66.0189 49.1053C59.008 56.3395 47.7372 56.9515 40.0088 50.819L25.0693 66.2342C24.3225 67.0047 23.0926 67.024 22.3221 66.2773C21.5515 65.5305 21.5323 64.3006 22.279 63.5301L37.2186 48.1148C30.8469 40.5824 31.1055 29.298 38.1165 22.0638Z" fill="#FFCB3D"/>
</svg>
